<?xml version="1.0" encoding="utf-8"?>
<!-- Generator: Adobe Illustrator 28.2.0, SVG Export Plug-In . SVG Version: 6.00 Build 0)  -->
<svg version="1.1" xmlns="http://www.w3.org/2000/svg" xmlns:xlink="http://www.w3.org/1999/xlink" x="0px" y="0px"
	 viewBox="0 0 499.1 43.5" style="enable-background:new 0 0 499.1 43.5;" xml:space="preserve">
<style type="text/css">
	.st0{fill:#EF3E23;}
	.st1{fill:#010101;}
	.st2{fill:#F13200;}
	.st3{fill:#979797;}
</style>
<g id="Layer_1">
</g>
<g id="Isolation_Mode">
	<g>
		<g>
			<path class="st0" d="M56.2,9.2h5.2v18.2h11.3v4.2H56.2V9.2z"/>
			<path class="st0" d="M91.6,10.2c1.5,0.7,2.6,1.6,3.4,2.8c0.8,1.2,1.2,2.7,1.2,4.3c0,1.6-0.4,3.1-1.2,4.3
				c-0.8,1.2-1.9,2.2-3.4,2.8c-1.5,0.7-3.2,1-5.2,1h-4.5v6.2h-5.2V9.2h9.7C88.4,9.2,90.1,9.5,91.6,10.2z M89.7,20.2
				c0.8-0.7,1.2-1.6,1.2-2.9c0-1.3-0.4-2.2-1.2-2.9c-0.8-0.7-2-1-3.6-1h-4.2v7.8h4.2C87.7,21.2,88.9,20.9,89.7,20.2z"/>
			<path class="st0" d="M103.6,29.3c-1.8-1.8-2.7-4.3-2.7-7.6V9.2h5.2v12.4c0,4,1.7,6,5,6c1.6,0,2.9-0.5,3.7-1.5
				c0.9-1,1.3-2.5,1.3-4.6V9.2h5.1v12.6c0,3.3-0.9,5.8-2.7,7.6c-1.8,1.8-4.3,2.7-7.5,2.7C107.8,32,105.3,31.1,103.6,29.3z"/>
			<path class="st1" d="M136.9,9.2h5.2v22.4h-5.2V9.2z"/>
			<path class="st1" d="M170.7,9.2v22.4h-4.3L155.2,18v13.6h-5.1V9.2h4.3l11.2,13.6V9.2H170.7z"/>
			<path class="st1" d="M183.9,13.3v5.9h10.4v4.2h-10.4v8.2h-5.2V9.2h17v4.2H183.9z"/>
			<path class="st1" d="M217.7,27.4v4.2h-17.4V9.2h17v4.2h-11.8v4.9h10.4v4h-10.4v5.2H217.7z"/>
			<path class="st1" d="M239.1,31.6l-4.3-6.3h-0.3H230v6.3h-5.2V9.2h9.7c2,0,3.7,0.3,5.2,1c1.5,0.7,2.6,1.6,3.4,2.8
				c0.8,1.2,1.2,2.7,1.2,4.3c0,1.7-0.4,3.1-1.2,4.3c-0.8,1.2-1.9,2.1-3.4,2.8l5,7.2H239.1z M237.7,14.4c-0.8-0.7-2-1-3.6-1H230v7.8
				h4.2c1.6,0,2.7-0.3,3.6-1c0.8-0.7,1.2-1.6,1.2-2.9C239,16,238.6,15.1,237.7,14.4z"/>
			<path class="st1" d="M268.5,27.4v4.2h-17.4V9.2h17v4.2h-11.8v4.9h10.4v4h-10.4v5.2H268.5z"/>
			<path class="st1" d="M296.1,9.2v22.4h-4.3L280.6,18v13.6h-5.1V9.2h4.3L291,22.8V9.2H296.1z"/>
			<path class="st1" d="M307.7,30.5c-1.8-1-3.3-2.4-4.4-4.1c-1.1-1.8-1.6-3.8-1.6-6c0-2.2,0.5-4.2,1.6-6c1.1-1.8,2.5-3.1,4.4-4.1
				c1.8-1,3.9-1.5,6.2-1.5c1.9,0,3.7,0.3,5.3,1c1.6,0.7,2.9,1.7,4,2.9l-3.3,3.1c-1.5-1.8-3.4-2.6-5.6-2.6c-1.4,0-2.6,0.3-3.7,0.9
				c-1.1,0.6-1.9,1.5-2.6,2.5c-0.6,1.1-0.9,2.3-0.9,3.7c0,1.4,0.3,2.6,0.9,3.7c0.6,1.1,1.5,1.9,2.6,2.6c1.1,0.6,2.3,0.9,3.7,0.9
				c2.2,0,4.1-0.9,5.6-2.7l3.3,3.1c-1.1,1.3-2.4,2.3-4,3c-1.6,0.7-3.3,1-5.3,1C311.6,32,309.5,31.5,307.7,30.5z"/>
			<path class="st1" d="M346.6,27.4v4.2h-17.4V9.2h17v4.2h-11.8v4.9h10.4v4h-10.4v5.2H346.6z"/>
			<path class="st1" d="M380.6,27.4v4.2h-17.4V9.2h17v4.2h-11.8v4.9h10.4v4h-10.4v5.2H380.6z"/>
			<path class="st1" d="M407.3,9.2v22.4H403L391.8,18v13.6h-5.1V9.2h4.3l11.2,13.6V9.2H407.3z"/>
			<path class="st1" d="M428.9,20h4.7v9.1c-1.2,0.9-2.6,1.6-4.2,2.1c-1.6,0.5-3.2,0.7-4.8,0.7c-2.3,0-4.4-0.5-6.3-1.5
				c-1.9-1-3.3-2.4-4.4-4.1c-1.1-1.8-1.6-3.8-1.6-6c0-2.2,0.5-4.2,1.6-6c1.1-1.8,2.5-3.1,4.4-4.1c1.9-1,4-1.5,6.3-1.5
				c2,0,3.8,0.3,5.4,1c1.6,0.7,3,1.6,4,2.9l-3.3,3.1c-1.6-1.7-3.5-2.5-5.8-2.5c-1.4,0-2.7,0.3-3.8,0.9c-1.1,0.6-2,1.4-2.6,2.5
				c-0.6,1.1-0.9,2.3-0.9,3.8c0,1.4,0.3,2.6,0.9,3.7c0.6,1.1,1.5,1.9,2.6,2.6c1.1,0.6,2.4,0.9,3.8,0.9c1.5,0,2.8-0.3,4-1V20z"/>
			<path class="st1" d="M440.7,9.2h5.2v22.4h-5.2V9.2z"/>
			<path class="st1" d="M474.5,9.2v22.4h-4.3L459,18v13.6h-5.1V9.2h4.3l11.2,13.6V9.2H474.5z"/>
			<path class="st1" d="M499.1,27.4v4.2h-17.4V9.2h17v4.2h-11.8v4.9h10.4v4h-10.4v5.2H499.1z"/>
		</g>
		<g>
			<path class="st2" d="M25.2,11.5v13.7H11.5V11.5H25.2 M27.5,9.2H9.2v18.3h18.3V9.2L27.5,9.2z"/>
			<path class="st3" d="M32.1,0H4.6C2.1,0,0,2.1,0,4.6v27.5c0,2.5,2.1,4.6,4.6,4.6h23.8l8.2,6.9V32.1V4.6C36.7,2.1,34.6,0,32.1,0z
				 M22.9,32.1H4.6V4.6h27.5v27.5H22.9z"/>
		</g>
	</g>
</g>
</svg>
